PathFileType	4	(x/y/z)	S05_BK_Cal_T01
DataRate	CameraRate	NumFrames	NumMarkers	Units	OrigDataRate	OrigDataStartFrame	OrigNumFrames
240	240	4	50	mm	240	601	2400
Frame#	Time	Sternum			R.Acromium			L.Acromium			Top.Head			R.ASIS			L.ASIS			R.PSIS			L.PSIS			R.Great.Tro			L.Great.Tro			R.Iliac.Crest			L.Iliac.Crest			V.Sacral			R.Thigh.Upper.Post			R.Thigh.Lower.Ant			R.Thigh.Lower.Post			R.Thigh.Upper.Ant			R.Knee.Lat			R.Knee.Med			R.Shank.Upper.Post			R.Shank.Lower.Ant			R.Shank.Lower.Post			R.Shank.Upper.Ant			R.Ankle.Lat			R.Ankle.Med			R.Heel.Upper			R.Heel.Med			R.Heel.Lat			R.Toe.Lat			R.Toe.Med			R.Toe.Tip			L.Thigh.Upper.Post			L.Thigh.Lower.Ant			L.Thigh.Lower.Post			L.Thigh.Upper.Ant			L.Knee.Lat			L.Shank.Upper.Post			L.Shank.Lower.Ant			L.Shank.Lower.Post			L.Shank.Upper.Ant			L.Ankle.Lat			L.Ankle.Med			L.Heel.Upper			L.Heel.Med			L.Heel.Lat			L.Toe.Lat			L.Toe.Med			L.Toe.Tip			Cervical.Spine			Back			
		X1	Y1	Z1	X2	Y2	Z2	X3	Y3	Z3	X4	Y4	Z4	X5	Y5	Z5	X6	Y6	Z6	X7	Y7	Z7	X8	Y8	Z8	X9	Y9	Z9	X10	Y10	Z10	X11	Y11	Z11	X12	Y12	Z12	X13	Y13	Z13	X14	Y14	Z14	X15	Y15	Z15	X16	Y16	Z16	X17	Y17	Z17	X18	Y18	Z18	X19	Y19	Z19	X20	Y20	Z20	X21	Y21	Z21	X22	Y22	Z22	X23	Y23	Z23	X24	Y24	Z24	X25	Y25	Z25	X26	Y26	Z26	X27	Y27	Z27	X28	Y28	Z28	X29	Y29	Z29	X30	Y30	Z30	X31	Y31	Z31	X32	Y32	Z32	X33	Y33	Z33	X34	Y34	Z34	X35	Y35	Z35	X36	Y36	Z36	X37	Y37	Z37	X38	Y38	Z38	X39	Y39	Z39	X40	Y40	Z40	X41	Y41	Z41	X42	Y42	Z42	X43	Y43	Z43	X44	Y44	Z44	X45	Y45	Z45	X46	Y46	Z46	X47	Y47	Z47	X48	Y48	Z48	X49	Y49	Z49	X50	Y50	Z50	

601	2.5	508.13	1242.7	325.06	422.11	1498.5	483.84	403.97	1507.1	144.29	424.75	1819.7	319.18	432.05	989.95	455.24	441.23	991.21	205.63	234.26	1015.4	362.39	238.82	1016	269.8	350.89	913.4	517.13	358.06	914.76	126.24	353.23	1078.9	489.78	360.95	1073.3	157.29	223.9	977.46	328.31	445.09	705.27	532.85	512.13	643.51	486.24	452.4	615.65	517.63	499.83	731.85	500.82	463.13	520.33	506.12	467.21	495.78	378.05	346.75	299.34	516.85	395.01	222.55	514.56	331.18	224.2	505.45	412.2	298.75	524.73	355.04	123.57	506.79	360.95	143.41	413	273.33	75.155	456.04	281.9	41.173	429.43	283.39	48.805	494.02	452.02	36.876	534.56	478.86	40.875	412.66	545.94	57.403	453.54	411.52	681.11	114.34	505.47	625.76	134.02	442.06	590.92	125.54	482.86	713.53	123.19	466.51	505.66	126.28	366.61	328.3	117.85	420.36	257.46	119.93	349.89	257.51	132.11	432.55	327.05	110.12	345.05	118.01	134.8	381.38	125.75	222.63	278.6	68.296	186.18	291	43.52	218.12	281.27	40.787	157.24	462.25	39.228	98.128	488.28	51.22	216.61	551.1	60.275	159.74	360.06	1552.1	322.6	247.97	1278.8	325.11
602	2.5042	508.15	1242.7	325.05	422.15	1498.4	483.84	404	1507.1	144.28	424.8	1819.7	319.16	432.07	989.95	455.23	441.24	991.21	205.63	234.27	1015.4	362.38	238.83	1016	269.79	350.9	913.4	517.13	358.07	914.77	126.23	353.24	1078.9	489.78	360.97	1073.3	157.28	223.91	977.46	328.31	445.1	705.27	532.85	512.14	643.51	486.24	452.41	615.65	517.64	499.83	731.85	500.82	463.13	520.33	506.12	467.21	495.78	378.05	346.76	299.34	516.86	395.02	222.55	514.56	331.19	224.2	505.46	412.21	298.75	524.73	355.04	123.57	506.79	360.95	143.42	413	273.33	75.159	456.04	281.9	41.176	429.43	283.4	48.803	494.03	452.02	36.873	534.56	478.87	40.873	412.66	545.94	57.401	453.53	411.53	681.11	114.33	505.47	625.76	134	442.07	590.92	125.53	482.86	713.53	123.17	466.52	505.66	126.27	366.62	328.3	117.84	420.37	257.46	119.92	349.9	257.51	132.1	432.55	327.05	110.1	345.05	118.01	134.8	381.38	125.75	222.63	278.6	68.301	186.18	291	43.523	218.12	281.27	40.791	157.25	462.26	39.225	98.126	488.29	51.213	216.61	551.11	60.266	159.74	360.1	1552.1	322.59	247.99	1278.8	325.1
603	2.5083	508.17	1242.7	325.04	422.19	1498.4	483.83	404.03	1507.1	144.27	424.86	1819.7	319.14	432.08	989.95	455.22	441.25	991.21	205.62	234.28	1015.4	362.38	238.84	1016	269.79	350.92	913.4	517.12	358.07	914.77	126.23	353.26	1078.9	489.78	360.98	1073.3	157.28	223.92	977.46	328.3	445.11	705.27	532.85	512.15	643.51	486.24	452.43	615.65	517.64	499.83	731.86	500.82	463.14	520.33	506.12	467.22	495.78	378.05	346.77	299.34	516.87	395.03	222.55	514.57	331.19	224.2	505.47	412.22	298.75	524.74	355.04	123.57	506.79	360.95	143.42	413	273.33	75.164	456.04	281.91	41.18	429.43	283.41	48.801	494.03	452.02	36.87	534.56	478.87	40.872	412.66	545.94	57.4	453.53	411.53	681.11	114.32	505.48	625.76	133.98	442.07	590.93	125.51	482.87	713.54	123.15	466.52	505.66	126.25	366.62	328.3	117.83	420.38	257.46	119.91	349.9	257.51	132.09	432.56	327.06	110.09	345.05	118.01	134.8	381.38	125.75	222.64	278.61	68.306	186.18	291	43.527	218.12	281.28	40.795	157.25	462.26	39.223	98.124	488.29	51.206	216.61	551.11	60.256	159.74	360.13	1552.1	322.58	248.02	1278.8	325.1
604	2.5125	508.19	1242.7	325.03	422.23	1498.4	483.82	404.06	1507.1	144.26	424.91	1819.7	319.12	432.1	989.95	455.22	441.26	991.21	205.62	234.3	1015.4	362.38	238.85	1016	269.79	350.93	913.4	517.12	358.08	914.77	126.22	353.27	1078.9	489.77	360.99	1073.3	157.27	223.93	977.47	328.3	445.13	705.28	532.86	512.16	643.51	486.24	452.44	615.66	517.64	499.83	731.86	500.81	463.15	520.33	506.13	467.23	495.78	378.05	346.78	299.34	516.88	395.04	222.55	514.57	331.2	224.21	505.48	412.23	298.74	524.74	355.04	123.57	506.79	360.95	143.42	413	273.33	75.169	456.04	281.91	41.184	429.43	283.42	48.799	494.03	452.02	36.867	534.56	478.87	40.871	412.66	545.94	57.398	453.53	411.54	681.12	114.3	505.49	625.77	133.96	442.08	590.93	125.49	482.88	713.54	123.14	466.52	505.66	126.23	366.63	328.29	117.82	420.39	257.46	119.9	349.91	257.5	132.09	432.56	327.06	110.07	345.06	118.01	134.8	381.38	125.76	222.64	278.61	68.311	186.18	291	43.53	218.12	281.28	40.799	157.25	462.26	39.22	98.122	488.29	51.198	216.61	551.11	60.246	159.74	360.17	1552.1	322.57	248.04	1278.8	325.1
